<svg xmlns="http://www.w3.org/2000/svg" width="250" height="250" fill="none" viewBox="0 0 250 250">
  <circle cx="125" cy="125" r="125" fill="#EDEEC9"/>
  <path fill="#425355" fill-opacity=".28" stroke="#9BC9CF" stroke-opacity=".04" d="m71 169 5.5 2 8.5 2.5 7 1 7 1.5h51.5l14.5-2.5 14.5-5 4-8 1 3 1.5 4-.5 5.5.5 3-2.5 5v3.5l-.5 4-25.5 7-10.5 5h-17.5l-18 5.5-3.5-2-18.5-6.5-7-4.5-11.5-2.5-1.5-4V182l-1-8.5L71 169Z"/>
  <mask id="a" fill="#fff">
    <path d="M177.246 153.978c7.403 3.13 11.152 6.84 10.72 10.607-.431 3.766-5.023 7.4-13.127 10.387-8.104 2.988-19.312 5.179-32.043 6.265-12.731 1.085-26.343 1.011-38.917-.213-12.574-1.223-23.476-3.535-31.17-6.609-7.692-3.073-11.787-6.754-11.708-10.522.08-3.769 4.33-7.435 12.151-10.483 7.822-3.047 18.82-5.322 31.445-6.503L124.5 164l52.746-10.022Z"/>
  </mask>
  <path stroke="#9AABAD" stroke-width="2" d="M177.246 153.978c7.403 3.13 11.152 6.84 10.72 10.607-.431 3.766-5.023 7.4-13.127 10.387-8.104 2.988-19.312 5.179-32.043 6.265-12.731 1.085-26.343 1.011-38.917-.213-12.574-1.223-23.476-3.535-31.17-6.609-7.692-3.073-11.787-6.754-11.708-10.522.08-3.769 4.33-7.435 12.151-10.483 7.822-3.047 18.82-5.322 31.445-6.503L124.5 164l52.746-10.022Z" mask="url(#a)"/>
  <path stroke="#B3C6C9" d="M197.5 162c0 3.092-1.906 6.119-5.544 8.947-3.631 2.823-8.917 5.386-15.493 7.549-13.148 4.322-31.343 7.004-51.463 7.004s-38.315-2.682-51.463-7.004c-6.576-2.163-11.862-4.726-15.493-7.549-3.638-2.828-5.544-5.855-5.544-8.947 0-3.092 1.906-6.119 5.544-8.947 3.63-2.823 8.917-5.386 15.493-7.549C86.685 141.182 104.88 138.5 125 138.5s38.315 2.682 51.463 7.004c6.576 2.163 11.862 4.726 15.493 7.549 3.638 2.828 5.544 5.855 5.544 8.947Z"/>
  <path stroke="#C9DCDF" d="M212.5 162c0 3.643-2.255 7.197-6.525 10.504-4.264 3.301-10.465 6.296-18.173 8.82-15.41 5.046-36.73 8.176-60.302 8.176-23.572 0-44.892-3.13-60.302-8.176-7.708-2.524-13.909-5.519-18.173-8.82-4.27-3.307-6.525-6.861-6.525-10.504s2.255-7.197 6.525-10.504c4.264-3.301 10.465-6.296 18.173-8.82 15.41-5.046 36.73-8.176 60.302-8.176 23.572 0 44.892 3.13 60.302 8.176 7.708 2.524 13.909 5.519 18.173 8.82 4.27 3.307 6.525 6.861 6.525 10.504Z"/>
  <path fill="#fff" d="m100.798 134.589-3-3-1.5-3.5v-3l-2-3s-5.24-6.683-6.5-14.5c-1.26-7.816-1.214-12.196 1.5-20 4.377-7.301 7.623-10.309 15-13.5 11.348-.928 13.724 2.31 19.5 1.5s11.996-4.176 13.5-3.5c5.324.37 10 3.5 10 3.5s2 2.5 5 1.5l2.5-.5h2l2 .5 1.5 1.5c.5.5 1-.5 2-1.5s3 0 3 0l.5 1.5v2.5l2.5 2 1.5 2 2.5 2.5 1.5 2.5 3 3v1.5l-1 2.5-2 1-2 1-3.5-1-3-1c-2.097-.216-3.187-.207-5 0-2.227-.185-2.957.008-4 .5l-4 1.5h-2l-.5 1v2.5l-1.5 2.5-1 1.5-1 1.5-1 3-1.5 2.5-.5 1.5-1 2.5c-.743 1.809-.5 5.5-.5 5.5s.019 3.204.5 5l1 2 1 1.5v4l-1 2h-3l-2-1L138 136v-.613l-.202.202-.5 1-1.5 1h-2l-2-1-1-1-1-1-1.5-1.5-1-1.5v-5l.5-2v-4l-1-1-1-1.5v-1.5l-.5-1.5v-5l-.5-.5-1-1.5-1-.5-1.5-1-1 1v2l1 4v6l1.5 8.5v2.411L116 131.589l-1.202-1.5-1-2L111.5 124v-2.411l-1.202-2-2-3.5v-2l-2-2.5-.5-2c.727-.356 1.048-.591 1.037-.75a54.3 54.3 0 0 1-2.037.028v.222l-.5 2v5l1.5 1.5v4l.5 2 2 2.5v3l-.5 2.5-1.5 2-2.5 1h-3Z"/>
  <path stroke="#EAE4E4" d="M144.298 99.09h6m-7 5.999-1 1.5-1 1.5-1 3.5-1.5 3-1 2-.5 3c-.117 2.383.096 3.509.5 5.5.743 2.452.944 3.62 1 5.411.271 2.055.249 2.914 0 4.089l-.798.798m12.298-36.298h2l4-1.5c1.043-.492 1.773-.685 4-.5 1.813-.207 2.903-.216 5 0l3 1 3.5 1 2-1 2-1 1-2.5v-1.5l-3-3-1.5-2.5-2.5-2.5-1.5-2-2.5-2v-2.5l-.5-1.5s-2-1-3 0-1.5 2-2 1.5l-1.5-1.5-2-.5h-2l-2.5.5c-3 1-5-1.5-5-1.5s-4.676-3.13-10-3.5c-1.504-.676-7.724 2.69-13.5 3.5s-8.152-2.428-19.5-1.5c-7.377 3.191-10.623 6.199-15 13.5-2.714 7.804-2.76 12.184-1.5 20 1.26 7.817 6.5 14.5 6.5 14.5l2 3v3l1.5 3.5 3 3h3l2.5-1 1.5-2 .5-2.5v-3l-2-2.5-.5-2v-4l-1.5-1.5v-5l.5-2v-.589c2.104.065 2.812.201 1 1.089l.5 2 2 2.5v2l2 3.5 1.202 2V124l2.298 4.089 1 2 1.202 1.5 6.798-1.089v-2.411l-1.5-8.5v-6l-1-4v-2l1-1 1.5 1 1 .5 1 1.5.5.5v5l.5 1.5v1.5l1 1.5 1 1v4l-.5 2v5l1 1.5 1.5 1.5 1 1 1 1 2 1h2l1.5-1 .5-1 .202-.202m12.298-36.298-.5 1v2.5l-1.5 2.5-1 1.5-1 1.5-1 3-1.5 2.5-.5 1.5-1 2.5c-.743 1.809-.5 5.5-.5 5.5s.019 3.204.5 5l1 2 1 1.5v4l-1 2h-3l-2-1L138 136v-.613m-33.202-26.52c5.256.018 7.537-.533 10.702-2.278"/>
  <mask id="b" fill="#fff">
    <path d="M127.5 129c23.835 0 46.809 2.94 64.408 8.242 17.599 5.303 28.55 12.584 30.702 20.414 2.152 7.83-4.651 15.642-19.071 21.902-14.421 6.26-35.417 10.514-58.864 11.928-23.447 1.414-47.65-.115-67.852-4.287-20.203-4.172-34.945-10.685-41.331-18.259-6.387-7.575-3.954-15.663 6.818-22.677 10.773-7.013 29.107-12.444 51.4-15.225L127.5 160.5V129Z"/>
  </mask>
  <path stroke="#DAEFF2" stroke-width="2" d="M127.5 129c23.835 0 46.809 2.94 64.408 8.242 17.599 5.303 28.55 12.584 30.702 20.414 2.152 7.83-4.651 15.642-19.071 21.902-14.421 6.26-35.417 10.514-58.864 11.928-23.447 1.414-47.65-.115-67.852-4.287-20.203-4.172-34.945-10.685-41.331-18.259-6.387-7.575-3.954-15.663 6.818-22.677 10.773-7.013 29.107-12.444 51.4-15.225L127.5 160.5V129Z" mask="url(#b)"/>
  <path fill="#6B858D" d="M86 173.5s-6.913-1.233-11-3c-1.603-.693-4-2-4-2l4-8 5.5-9L86 148l3-8v-4l3.5-4 3-3.5 4-3.5h11l3.5 3.5h4.5l5.5 1.5 10-1.5 3 1.5h6l3 6h5.5v4l6.5 2h5l6 6h3.5v3.5l5 2 2.5 4.5 3.5 2.5-3.5 8-14 5-14.5 2.5h-52l-6.75-1.25L86 173.5Z"/>
  <path stroke="#486872" d="m183.5 160.5-3.5 8-14 5-14.5 2.5h-52l-6.75-1.25L86 173.5s-6.913-1.233-11-3c-1.603-.693-4-2-4-2m4 2c4.087 1.767 11 3 11 3l6.75 1.25L99.5 176h52l14.5-2.5 14-5 3.5-8-3.5-2.5-2.5-4.5-5-2V148H169l-6-6h-5l-6.5-2v-4H146l-3-6h-6l-3-1.5-10 1.5-5.5-1.5H114l-3.5-3.5h-11l-4 3.5-3 3.5-3.5 4v4l-3 8-5.5 3.5-5.5 9-4 8s2.397 1.307 4 2Z"/>
  <path fill="#fff" d="m100.798 134.589-3-3-1.5-3.5v-3l-2-3s-5.24-6.683-6.5-14.5c-1.26-7.816-1.214-12.196 1.5-20 4.377-7.301 7.623-10.309 15-13.5 11.348-.928 13.724 2.31 19.5 1.5s11.996-4.176 13.5-3.5c5.324.37 10 3.5 10 3.5s2 2.5 5 1.5l2.5-.5h2l2 .5 1.5 1.5c.5.5 1-.5 2-1.5s3 0 3 0l.5 1.5v2.5l2.5 2 1.5 2 2.5 2.5 1.5 2.5 3 3v1.5l-1 2.5-2 1-2 1-3.5-1-3-1c-2.097-.216-3.187-.207-5 0-2.227-.185-2.957.008-4 .5l-4 1.5h-2l-.5 1v2.5l-1.5 2.5-1 1.5-1 1.5-1 3-1.5 2.5-.5 1.5-1 2.5c-.743 1.809-.5 5.5-.5 5.5s.019 3.204.5 5l1 2 1 1.5v4l-1 2h-3l-2-1L138 136v-.613l-.202.202-.5 1-1.5 1h-2l-2-1-1-1-1-1-1.5-1.5-1-1.5v-5l.5-2v-4l-1-1-1-1.5v-1.5l-.5-1.5v-5l-.5-.5-1-1.5-1-.5-1.5-1-1 1-2.399-.544-2.046-.465c-3.104 1.684-5.88 2.305-11.055 2.287v.222l-.5 2v5l1.5 1.5v4l.5 2 2 2.5v3l-.5 2.5-1.5 2-2.5 1h-3Z"/>
  <path stroke="#D9D9D9" d="m158.798 77.09 1.5 1.5m-1.5-1.5-2-.5h-2l-2.5.5c-3 1-5-1.5-5-1.5s-4.676-3.131-10-3.5c-1.504-.677-7.724 2.69-13.5 3.5-5.776.808-8.152-2.43-19.5-1.5-7.377 3.19-10.623 6.198-15 13.5-2.714 7.803-2.76 12.183-1.5 19.999 1.26 7.817 6.5 14.5 6.5 14.5l2 3v3l1.5 3.5 3 3h3l2.5-1 1.5-2 .5-2.5v-3l-2-2.5-.5-2v-4l-1.5-1.5v-5l.5-2m54-32 1.5 1.5m0 0c.5.5 1-.5 2-1.5s3 0 3 0l.5 1.5v2.5l2.5 2 1.5 2 2.5 2.5 1.5 2.5 3 3v1.5l-1 2.5-2 1-2 1-3.5-1-3-1c-2.097-.216-3.187-.207-5 0-2.227-.185-2.957.008-4 .5l-4 1.5h-2m-6 0h6m-45.5 10v-.589m0 .589v-.222c5.175.018 7.951-.603 11.055-2.287m21.945 29.009-.5 1-1.5 1h-2l-2-1-1-1-1-1-1.5-1.5-1-1.5v-5l.5-2v-4l-1-1-1-1.5v-1.5l-.5-1.5v-5l-.5-.5-1-1.5-1-.5-1.5-1-1 1-2.399-.544-2.046-.465m21.945 29.009.202-.202m-.202.202.202-.202m5.298-30.298-1 1.5-1 1.5-1 3.5-1.5 3-1 2-.5 3c-.117 2.383.096 3.509.5 5.5.743 2.452.944 3.62 1 5.411.271 2.055.249 2.914 0 4.089l-.798.798m12.298-36.298-.5 1v2.5l-1.5 2.5-1 1.5-1 1.5-1 3-1.5 2.5-.5 1.5-1 2.5c-.743 1.809-.5 5.5-.5 5.5s.019 3.204.5 5l1 2 1 1.5v4l-1 2h-3l-2-1L138 136m0 0v-.613m0 .613v-.613M116 106.5l-.147.08m-.353-.08.353.08"/>
  <path fill="#425355" d="M54.087 61.1a81.686 81.686 0 0 0 2.597-.857c4.202-1.521 6.526-2.37 6.972-2.545.239.468.53.89.873 1.265.342.37.746.752 1.211 1.145-.01.097-.072.194-.187.29a4.162 4.162 0 0 0-.957-.663 4.894 4.894 0 0 0-1.211-.398c-.46-.096-1-.117-1.622-.062a11.16 11.16 0 0 0-2.041.394l-2.032.722a176.549 176.549 0 0 0 1.572 4.723l2.098-.746c.142-.05.27-.107.387-.17.118-.07.222-.151.311-.244.087-.097.164-.185.23-.264.069-.085.13-.195.18-.33.05-.139.093-.253.127-.343.033-.095.065-.23.096-.407.031-.177.054-.315.069-.414l.06-.46c.03-.21.054-.368.072-.474.173.005.289.035.347.092a6.88 6.88 0 0 0-.093 1.393c.015.492.075.885.18 1.18.247.697.765 1.377 1.554 2.042-.01.093-.08.192-.209.298a74.698 74.698 0 0 1-.377-.338c-.16-.154-.284-.27-.373-.349a10.148 10.148 0 0 0-.354-.296 2.778 2.778 0 0 0-.748-.448 1.262 1.262 0 0 0-.405-.113 1.876 1.876 0 0 0-.422.001c-.151.01-.308.043-.47.1l-2.098.747c.277.78.864 2.343 1.758 4.69l2.349-.835a11.17 11.17 0 0 0 1.83-.983c.518-.35.924-.707 1.22-1.072.3-.367.53-.725.688-1.074.158-.349.266-.722.324-1.118.15.002.258.035.325.1-.007.058-.029.198-.065.421a16.48 16.48 0 0 0-.124.865c-.021.19-.033.343-.035.46a9.978 9.978 0 0 0-.007.425c.005.17.017.334.035.494.02.153.049.309.083.468l-6.463 2.297c-1.33.473-2.466.894-3.407 1.262a.518.518 0 0 1-.082-.137 1.34 1.34 0 0 1-.041-.21c.219-.1.393-.183.524-.252a8.39 8.39 0 0 0 .476-.294c.188-.122.32-.246.398-.373a.477.477 0 0 0 .051-.392 128.695 128.695 0 0 0-1.563-4.676 104.862 104.862 0 0 0-1.537-4.089.453.453 0 0 0-.284-.263c-.141-.055-.323-.07-.547-.046a5.431 5.431 0 0 0-.552.08 6.728 6.728 0 0 0-.568.127 1.087 1.087 0 0 1-.095-.173.868.868 0 0 1-.028-.173Zm14.683-4.955c.834-.185 1.88-.45 3.135-.794 4.77 3.478 7.33 5.326 7.675 5.544l.517.32.06-.016c-.244-.97-.446-1.749-.607-2.336-.318-1.16-.717-2.518-1.196-4.071-.134-.45-.767-.573-1.9-.371a1.786 1.786 0 0 1-.086-.195.514.514 0 0 1-.01-.16 60.64 60.64 0 0 0 2.16-.542c.4-.11 1.07-.31 2.006-.598a.526.526 0 0 1 .097.354c-1.073.401-1.552.83-1.438 1.285.37 1.589.764 3.147 1.183 4.674.64 2.335 1.146 4.087 1.52 5.253l-.132.053L71.74 57.38l-.075.02a175.3 175.3 0 0 0 1.034 3.953c.32 1.166.717 2.52 1.194 4.064.135.454.767.581 1.894.38.049.079.08.143.094.193.013.05.015.104.003.161-.807.189-1.524.37-2.152.541-.402.11-1.07.31-2.007.598a.348.348 0 0 1-.079-.14.476.476 0 0 1-.018-.214c1.081-.41 1.56-.84 1.436-1.292a138.35 138.35 0 0 0-2.424-8.967c-.522-.252-1.113-.311-1.774-.179a.438.438 0 0 1-.092-.16.333.333 0 0 1-.005-.194Zm15.023-3.867a82.387 82.387 0 0 0 2.758-.468c1.27-.288 2.052-.46 2.343-.516.476-.092.927-.158 1.355-.198a9 9 0 0 1 1.34-.02c.471.02.906.086 1.303.195.397.103.79.269 1.178.496a4.16 4.16 0 0 1 1.032.852c.299.34.567.768.804 1.285.237.51.418 1.094.545 1.748a6.85 6.85 0 0 1 .004 1.798 5.094 5.094 0 0 1-1.18 2.71 5.718 5.718 0 0 1-1.031.963 7.694 7.694 0 0 1-1.23.722c-.446.214-.89.39-1.33.527-.435.137-.89.252-1.366.343-1.918.37-3.37.666-4.356.889a.514.514 0 0 1-.06-.148 1.337 1.337 0 0 1-.01-.213c.151-.045.272-.081.362-.11.09-.027.212-.07.365-.126.159-.057.284-.11.375-.16a3.22 3.22 0 0 0 .29-.19.612.612 0 0 0 .202-.23.393.393 0 0 0 .037-.262 128.428 128.428 0 0 0-.842-4.858c-.32-1.657-.621-3.082-.904-4.274a.453.453 0 0 0-.242-.303c-.131-.076-.309-.118-.534-.128a5.64 5.64 0 0 0-.557-.004 6.794 6.794 0 0 0-.581.04 1.077 1.077 0 0 1-.068-.185.86.86 0 0 1-.002-.175Zm3.779.409c.269 1.752.548 3.377.837 4.875.16.828.494 2.408 1.002 4.74.222-.032.537-.088.947-.167.828-.16 1.54-.427 2.136-.802.595-.38 1.056-.838 1.382-1.373a4.596 4.596 0 0 0 .625-1.791 6.42 6.42 0 0 0-.076-2.126 7.165 7.165 0 0 0-.312-1.125 7.207 7.207 0 0 0-.512-1.087 4.183 4.183 0 0 0-.76-.967 4.348 4.348 0 0 0-1.012-.712 3.534 3.534 0 0 0-1.314-.375 5.285 5.285 0 0 0-1.608.08 9.741 9.741 0 0 0-1.422.377l.087.453Zm18.006-4.013a.595.595 0 0 1 .236-.137l5.458 10.117a.808.808 0 0 0 .294.304c.129.075.285.128.467.16.186.025.346.044.478.055.137.005.302.007.496.006.03.08.049.149.055.206a.477.477 0 0 1-.011.174 74.797 74.797 0 0 0-2.515.225c-.6.068-1.467.188-2.601.36a.608.608 0 0 1-.043-.38c1.032-.234 1.532-.49 1.5-.77a1.217 1.217 0 0 0-.062-.267l-1.455-2.76a48.7 48.7 0 0 0-1.384.143c-.274.032-.984.123-2.131.275l-.842 3.156.011.093c.006.051.019.1.04.145a.363.363 0 0 0 .107.113.906.906 0 0 0 .322.136l.201.032.229.013c.1.005.177.009.23.014l.227-.003c.105-.002.178-.002.22-.002.031.08.049.15.055.206.004.032 0 .09-.011.175-1.164.09-1.818.145-1.963.161-.28.032-.997.135-2.151.31a.58.58 0 0 1-.043-.381c1.062-.247 1.645-.581 1.749-1.002l2.375-8.796-.223-.438c.272-.23.453-.466.54-.707.093-.241.142-.553.145-.936Zm.844 6.83c.476-.054.851-.102 1.124-.143l-1.912-3.65-.031.003-1.047 3.973a46.8 46.8 0 0 0 1.866-.182Zm9.057-7.594c.855.008 1.933-.014 3.234-.065 3.863 4.465 5.937 6.843 6.225 7.134l.432.428.062-.002c-.019-1-.04-1.805-.064-2.413a136.73 136.73 0 0 0-.246-4.236c-.029-.468-.618-.732-1.767-.79a1.678 1.678 0 0 1-.04-.21.514.514 0 0 1 .025-.157 60.384 60.384 0 0 0 2.227-.041 77.6 77.6 0 0 0 2.09-.13.5.5 0 0 1 .037.155.62.62 0 0 1-.022.212c-1.136.149-1.7.458-1.692.927.002 1.631.035 3.238.098 4.82.095 2.42.194 4.24.294 5.461l-.14.022-8.138-9.24-.078.003c.023 1.349.061 2.71.115 4.085.048 1.207.13 2.616.246 4.227.029.474.616.74 1.76.799a.812.812 0 0 1 .047.209.347.347 0 0 1-.033.158 59.53 59.53 0 0 0-2.219.04 77.6 77.6 0 0 0-2.09.13.346.346 0 0 1-.045-.154.47.47 0 0 1 .03-.213c1.146-.155 1.71-.466 1.691-.934a140.646 140.646 0 0 0-.336-9.283c-.452-.363-1.015-.555-1.688-.575a.436.436 0 0 1-.054-.178.337.337 0 0 1 .039-.189Zm26.3 3.575a10.455 10.455 0 0 0-.456-.986 5.73 5.73 0 0 0-.6-.898 3.935 3.935 0 0 0-.808-.773 4.103 4.103 0 0 0-1.075-.517 5.141 5.141 0 0 0-1.422-.24 3.377 3.377 0 0 0-2.708 1.143 5.393 5.393 0 0 0-.79 1.26c-.216.477-.374.96-.476 1.452a8.846 8.846 0 0 0-.18 1.487c-.019.5.007.998.077 1.496.07.492.198.984.383 1.476.19.492.429.925.718 1.301a3.47 3.47 0 0 0 1.107.932c.454.241.963.372 1.525.393 1.145.043 1.951-.183 2.418-.676l.117-3.17a.384.384 0 0 0-.122-.294.915.915 0 0 0-.297-.214 2.43 2.43 0 0 0-.456-.142 5.436 5.436 0 0 0-.908-.167.808.808 0 0 1-.024-.188.873.873 0 0 1 .037-.179c1.175.086 2.08.14 2.715.164a81.09 81.09 0 0 0 2.719.038c.022.105.033.166.033.181a1.448 1.448 0 0 1-.046.186 6.082 6.082 0 0 0-.927.099c-.188.03-.341.065-.457.108a.945.945 0 0 0-.304.192.385.385 0 0 0-.144.284l-.043 1.155c-.036.989.051 1.803.262 2.441a17.51 17.51 0 0 1-2.314.61c-.671.121-1.431.166-2.28.134a7.6 7.6 0 0 1-1.516-.212 6.387 6.387 0 0 1-1.587-.646 5.754 5.754 0 0 1-1.435-1.132c-.406-.448-.736-1.038-.99-1.772-.249-.734-.356-1.559-.322-2.475.024-.66.117-1.27.279-1.827a5.614 5.614 0 0 1 .631-1.438 5.33 5.33 0 0 1 .892-1.061c.345-.31.701-.56 1.068-.75a6.28 6.28 0 0 1 1.15-.458c.406-.12.79-.2 1.151-.239.361-.044.716-.06 1.065-.046.582.021 1.135.078 1.658.17a24.14 24.14 0 0 1 1.576.317c.522.119.936.202 1.241.25-.087.231-.138.56-.154.987a5.793 5.793 0 0 0 .306 2.083c-.035.093-.131.146-.287.161Zm5.697-3.06a80.23 80.23 0 0 0 2.71.373c4.443.482 6.903.742 7.381.781a5.69 5.69 0 0 0 .227 1.52c.144.483.339 1.004.584 1.561-.051.083-.15.143-.295.179a4.182 4.182 0 0 0-.568-1.017 4.91 4.91 0 0 0-.913-.89c-.37-.29-.847-.546-1.429-.77a11.186 11.186 0 0 0-2.006-.544l-2.143-.244a180.07 180.07 0 0 0-.666 4.932l2.212.253c.15.018.291.023.423.017a1.47 1.47 0 0 0 .387-.081c.121-.05.228-.095.322-.136.1-.047.202-.119.308-.217.106-.103.194-.187.265-.253.071-.07.159-.178.265-.323a15.721 15.721 0 0 0 .5-.73c.119-.175.21-.306.273-.393.153.08.244.16.272.236a6.827 6.827 0 0 0-.697 1.21c-.203.448-.323.828-.358 1.138-.084.735.082 1.574.498 2.518-.051.078-.157.137-.319.176l-.19-.47a14.703 14.703 0 0 0-.181-.476c-.045-.11-.108-.251-.188-.423a2.73 2.73 0 0 0-.474-.73 1.29 1.29 0 0 0-.314-.28 1.894 1.894 0 0 0-.38-.185 1.737 1.737 0 0 0-.467-.116l-2.212-.253c-.094.822-.255 2.484-.483 4.985l2.476.283c.771.036 1.464.01 2.076-.077.618-.087 1.141-.229 1.567-.426a4.897 4.897 0 0 0 1.09-.662 4.2 4.2 0 0 0 .783-.862c.133.068.216.145.248.233a15.08 15.08 0 0 1-.244.35 15.668 15.668 0 0 0-.492.721c-.102.162-.18.294-.234.398-.053.1-.117.225-.193.38-.07.154-.132.307-.186.458a6.357 6.357 0 0 0-.131.457l-6.815-.78c-1.402-.16-2.607-.282-3.614-.366a.529.529 0 0 1-.014-.159 1.53 1.53 0 0 1 .055-.206c.241.007.435.008.582.004.153-.009.339-.027.557-.054.223-.027.397-.08.521-.161a.48.48 0 0 0 .219-.329c.247-1.612.465-3.241.653-4.887.192-1.677.331-3.126.418-4.348a.45.45 0 0 0-.139-.362c-.103-.111-.26-.205-.471-.282a5.561 5.561 0 0 0-.531-.17 6.832 6.832 0 0 0-.566-.136 1.099 1.099 0 0 1-.009-.197.82.82 0 0 1 .05-.168Zm15.366 2.008c1.097.252 1.984.442 2.659.57.256.049.67.117 1.242.205.571.087 1.011.16 1.318.219 1.136.216 1.974.673 2.515 1.37.545.697.731 1.504.557 2.42a3.29 3.29 0 0 1-1.029 1.856c-.545.495-1.218.796-2.018.904.226.68.565 1.465 1.015 2.356.431.883.866 1.594 1.304 2.133.443.54.961.896 1.554 1.068a.842.842 0 0 1-.006.197.528.528 0 0 1-.062.163c-.304-.073-.63-.146-.977-.217a81.454 81.454 0 0 0-1.165-.23 47.766 47.766 0 0 1-.981-.195c-1.071-1.863-1.877-3.65-2.415-5.359a5.66 5.66 0 0 1-1.256-.422c-.189.993-.405 2.283-.649 3.87-.02.133.017.26.111.378.095.114.242.216.442.307.205.092.377.165.516.217.144.05.332.106.563.171a1.34 1.34 0 0 1-.008.213.525.525 0 0 1-.06.148 77.5 77.5 0 0 0-5.342-1.017.574.574 0 0 1 .069-.36c.156.014.282.024.376.031.094.008.222.014.386.018.168.006.304.002.407-.01a3.32 3.32 0 0 0 .34-.07.615.615 0 0 0 .273-.14.395.395 0 0 0 .131-.229c.366-1.59.704-3.198 1.014-4.825.316-1.658.562-3.093.74-4.305a.454.454 0 0 0-.112-.37c-.094-.12-.244-.225-.449-.317a5.531 5.531 0 0 0-.517-.21 6.65 6.65 0 0 0-.555-.177 1.049 1.049 0 0 1 .006-.198.882.882 0 0 1 .063-.163Zm3.468 1.21-.015-.004a180.436 180.436 0 0 0-1.087 5.25c.336.185.688.313 1.056.383.338.064.65.066.938.004a1.98 1.98 0 0 0 .755-.334c.21-.156.396-.351.557-.586.167-.233.298-.476.393-.728.101-.251.178-.515.23-.791.146-.763.054-1.424-.274-1.985-.322-.565-.866-.92-1.634-1.066a10.95 10.95 0 0 0-.919-.144Zm11.706 1.933c1.116.343 1.991.6 2.625.77 4.322 1.134 6.717 1.755 7.184 1.864a5.65 5.65 0 0 0 0 1.537c.071.5.186 1.043.347 1.63-.064.075-.17.12-.319.133a4.154 4.154 0 0 0-.411-1.09 4.898 4.898 0 0 0-.771-1.015c-.324-.34-.757-.665-1.3-.972a11.177 11.177 0 0 0-1.904-.835l-2.082-.56c-.637 2.111-1.1 3.704-1.389 4.78l2.15.578c.146.04.285.066.416.08.137.01.269.002.395-.024.126-.03.239-.06.338-.087a1.21 1.21 0 0 0 .337-.168c.12-.087.22-.157.299-.211a2.84 2.84 0 0 0 .31-.281c.126-.128.223-.229.292-.302a21.508 21.508 0 0 1 .639-.694c.14.102.218.194.234.273-.311.316-.601.68-.868 1.094-.268.413-.442.771-.523 1.073-.192.714-.152 1.569.12 2.564-.061.07-.175.112-.341.127l-.118-.493a16.84 16.84 0 0 0-.109-.498c-.029-.116-.07-.264-.123-.446a2.738 2.738 0 0 0-.362-.793 1.26 1.26 0 0 0-.269-.323 1.89 1.89 0 0 0-.348-.239 1.728 1.728 0 0 0-.444-.184l-2.151-.578c-.214.8-.62 2.42-1.215 4.86l2.406.646c.758.15 1.447.226 2.066.23.624.007 1.161-.057 1.612-.19a4.89 4.89 0 0 0 1.176-.492c.328-.198.629-.443.902-.737.122.087.192.176.211.267-.039.044-.136.147-.293.31-.157.162-.263.274-.317.335a14.57 14.57 0 0 0-.276.306 5.726 5.726 0 0 0-.291.36c-.067.089-.149.204-.247.345a5.762 5.762 0 0 0-.251.426c-.07.138-.135.282-.197.433l-6.625-1.78a119.81 119.81 0 0 0-3.521-.897.503.503 0 0 1 .011-.159c.009-.035.037-.1.084-.195.237.042.429.072.575.09.153.013.339.023.559.028.224.007.404-.02.539-.081a.475.475 0 0 0 .265-.293c.483-1.559.94-3.137 1.369-4.737.438-1.63.79-3.042 1.057-4.238a.45.45 0 0 0-.084-.379c-.085-.125-.226-.241-.424-.348a5.561 5.561 0 0 0-.5-.248 6.75 6.75 0 0 0-.54-.217.999.999 0 0 1 .021-.197.883.883 0 0 1 .074-.158Zm14.919 4.254c1.086.428 1.959.757 2.617.99 1.242.393 2.002.64 2.282.739.457.16.88.332 1.269.513.389.182.778.402 1.167.66.396.256.738.531 1.026.826.29.29.545.632.766 1.024.22.393.373.811.46 1.256.086.444.101.95.045 1.515a7.555 7.555 0 0 1-.414 1.785 6.855 6.855 0 0 1-.904 1.553 5.114 5.114 0 0 1-1.111 1.083c-.39.276-.816.496-1.277.66-.46.163-.919.266-1.376.31a7.69 7.69 0 0 1-1.426.002 10.076 10.076 0 0 1-1.415-.218 12.345 12.345 0 0 1-1.352-.394 155.302 155.302 0 0 0-4.208-1.434.535.535 0 0 1 .023-.158 1.26 1.26 0 0 1 .1-.189c.152.038.274.067.366.088.092.022.218.047.379.076.166.03.301.048.405.052.11 0 .226-.007.346-.02a.618.618 0 0 0 .291-.095.394.394 0 0 0 .164-.208 129.24 129.24 0 0 0 1.728-4.617 103.556 103.556 0 0 0 1.379-4.145.453.453 0 0 0-.055-.384c-.075-.131-.207-.258-.396-.38a5.686 5.686 0 0 0-.479-.285 6.846 6.846 0 0 0-.522-.259c.011-.095.023-.16.035-.194.011-.03.04-.08.087-.152Zm3.054 2.262a130.444 130.444 0 0 0-1.741 4.63c-.28.796-.79 2.328-1.53 4.597.208.084.508.195.901.334.796.28 1.546.41 2.249.387.706-.027 1.335-.189 1.887-.486a4.594 4.594 0 0 0 1.444-1.23 6.422 6.422 0 0 0 1.009-1.873 7.18 7.18 0 0 0 .299-1.128c.067-.38.103-.779.107-1.197a4.184 4.184 0 0 0-.167-1.219 4.335 4.335 0 0 0-.514-1.125 3.534 3.534 0 0 0-.944-.988 5.287 5.287 0 0 0-1.427-.744 9.753 9.753 0 0 0-1.419-.392l-.154.434Z"/>
</svg>
