<svg xmlns="http://www.w3.org/2000/svg" width="250" height="250" fill="none" viewBox="0 0 250 250">
  <circle cx="125" cy="125" r="125" fill="#EDEEC9"/>
  <path fill="#425355" fill-opacity=".28" stroke="#9BC9CF" stroke-opacity=".04" d="m71 169 5.5 2 8.5 2.5 7 1 7 1.5h51.5l14.5-2.5 14.5-5 4-8 1 3 1.5 4-.5 5.5.5 3-2.5 5v3.5l-.5 4-25.5 7-10.5 5h-17.5l-18 5.5-3.5-2-18.5-6.5-7-4.5-11.5-2.5-1.5-4V182l-1-8.5L71 169Z"/>
  <mask id="a" fill="#fff">
    <path d="M177.246 153.978c7.403 3.13 11.152 6.84 10.72 10.607-.431 3.766-5.023 7.4-13.127 10.387-8.104 2.988-19.312 5.179-32.043 6.265-12.731 1.085-26.343 1.011-38.917-.213-12.574-1.223-23.476-3.535-31.17-6.609-7.692-3.073-11.787-6.754-11.708-10.522.08-3.769 4.33-7.435 12.151-10.483 7.822-3.047 18.82-5.322 31.445-6.503L124.5 164l52.746-10.022Z"/>
  </mask>
  <path stroke="#9AABAD" stroke-width="2" d="M177.246 153.978c7.403 3.13 11.152 6.84 10.72 10.607-.431 3.766-5.023 7.4-13.127 10.387-8.104 2.988-19.312 5.179-32.043 6.265-12.731 1.085-26.343 1.011-38.917-.213-12.574-1.223-23.476-3.535-31.17-6.609-7.692-3.073-11.787-6.754-11.708-10.522.08-3.769 4.33-7.435 12.151-10.483 7.822-3.047 18.82-5.322 31.445-6.503L124.5 164l52.746-10.022Z" mask="url(#a)"/>
  <path stroke="#B3C6C9" d="M197.5 162c0 3.092-1.906 6.119-5.544 8.947-3.631 2.823-8.917 5.386-15.493 7.549-13.148 4.322-31.343 7.004-51.463 7.004s-38.315-2.682-51.463-7.004c-6.576-2.163-11.862-4.726-15.493-7.549-3.638-2.828-5.544-5.855-5.544-8.947 0-3.092 1.906-6.119 5.544-8.947 3.63-2.823 8.917-5.386 15.493-7.549C86.685 141.182 104.88 138.5 125 138.5s38.315 2.682 51.463 7.004c6.576 2.163 11.862 4.726 15.493 7.549 3.638 2.828 5.544 5.855 5.544 8.947Z"/>
  <path stroke="#C9DCDF" d="M212.5 162c0 3.643-2.255 7.197-6.525 10.504-4.264 3.301-10.465 6.296-18.173 8.82-15.41 5.046-36.73 8.176-60.302 8.176-23.572 0-44.892-3.13-60.302-8.176-7.708-2.524-13.909-5.519-18.173-8.82-4.27-3.307-6.525-6.861-6.525-10.504s2.255-7.197 6.525-10.504c4.264-3.301 10.465-6.296 18.173-8.82 15.41-5.046 36.73-8.176 60.302-8.176 23.572 0 44.892 3.13 60.302 8.176 7.708 2.524 13.909 5.519 18.173 8.82 4.27 3.307 6.525 6.861 6.525 10.504Z"/>
  <path fill="#fff" d="m100.798 134.589-3-3-1.5-3.5v-3l-2-3s-5.24-6.683-6.5-14.5c-1.26-7.816-1.214-12.196 1.5-20 4.377-7.301 7.623-10.309 15-13.5 11.348-.928 13.724 2.31 19.5 1.5s11.996-4.176 13.5-3.5c5.324.37 10 3.5 10 3.5s2 2.5 5 1.5l2.5-.5h2l2 .5 1.5 1.5c.5.5 1-.5 2-1.5s3 0 3 0l.5 1.5v2.5l2.5 2 1.5 2 2.5 2.5 1.5 2.5 3 3v1.5l-1 2.5-2 1-2 1-3.5-1-3-1c-2.097-.216-3.187-.207-5 0-2.227-.185-2.957.008-4 .5l-4 1.5h-2l-.5 1v2.5l-1.5 2.5-1 1.5-1 1.5-1 3-1.5 2.5-.5 1.5-1 2.5c-.743 1.809-.5 5.5-.5 5.5s.019 3.204.5 5l1 2 1 1.5v4l-1 2h-3l-2-1L138 136v-.613l-.202.202-.5 1-1.5 1h-2l-2-1-1-1-1-1-1.5-1.5-1-1.5v-5l.5-2v-4l-1-1-1-1.5v-1.5l-.5-1.5v-5l-.5-.5-1-1.5-1-.5-1.5-1-1 1v2l1 4v6l1.5 8.5v2.411L116 131.589l-1.202-1.5-1-2L111.5 124v-2.411l-1.202-2-2-3.5v-2l-2-2.5-.5-2c.727-.356 1.048-.591 1.037-.75a54.3 54.3 0 0 1-2.037.028v.222l-.5 2v5l1.5 1.5v4l.5 2 2 2.5v3l-.5 2.5-1.5 2-2.5 1h-3Z"/>
  <path stroke="#EAE4E4" d="M144.298 99.09h6m-7 5.999-1 1.5-1 1.5-1 3.5-1.5 3-1 2-.5 3c-.117 2.383.096 3.509.5 5.5.743 2.452.944 3.62 1 5.411.271 2.055.249 2.914 0 4.089l-.798.798m12.298-36.298h2l4-1.5c1.043-.492 1.773-.685 4-.5 1.813-.207 2.903-.216 5 0l3 1 3.5 1 2-1 2-1 1-2.5v-1.5l-3-3-1.5-2.5-2.5-2.5-1.5-2-2.5-2v-2.5l-.5-1.5s-2-1-3 0-1.5 2-2 1.5l-1.5-1.5-2-.5h-2l-2.5.5c-3 1-5-1.5-5-1.5s-4.676-3.13-10-3.5c-1.504-.676-7.724 2.69-13.5 3.5s-8.152-2.428-19.5-1.5c-7.377 3.191-10.623 6.199-15 13.5-2.714 7.804-2.76 12.184-1.5 20 1.26 7.817 6.5 14.5 6.5 14.5l2 3v3l1.5 3.5 3 3h3l2.5-1 1.5-2 .5-2.5v-3l-2-2.5-.5-2v-4l-1.5-1.5v-5l.5-2v-.589c2.104.065 2.812.201 1 1.089l.5 2 2 2.5v2l2 3.5 1.202 2V124l2.298 4.089 1 2 1.202 1.5 6.798-1.089v-2.411l-1.5-8.5v-6l-1-4v-2l1-1 1.5 1 1 .5 1 1.5.5.5v5l.5 1.5v1.5l1 1.5 1 1v4l-.5 2v5l1 1.5 1.5 1.5 1 1 1 1 2 1h2l1.5-1 .5-1 .202-.202m12.298-36.298-.5 1v2.5l-1.5 2.5-1 1.5-1 1.5-1 3-1.5 2.5-.5 1.5-1 2.5c-.743 1.809-.5 5.5-.5 5.5s.019 3.204.5 5l1 2 1 1.5v4l-1 2h-3l-2-1L138 136v-.613m-33.202-26.52c5.256.018 7.537-.533 10.702-2.278"/>
  <mask id="b" fill="#fff">
    <path d="M127.5 129c23.835 0 46.809 2.94 64.408 8.242 17.599 5.303 28.55 12.584 30.702 20.414 2.152 7.83-4.651 15.642-19.071 21.902-14.421 6.26-35.417 10.514-58.864 11.928-23.447 1.414-47.65-.115-67.852-4.287-20.203-4.172-34.945-10.685-41.331-18.259-6.387-7.575-3.954-15.663 6.818-22.677 10.773-7.013 29.107-12.444 51.4-15.225L127.5 160.5V129Z"/>
  </mask>
  <path stroke="#DAEFF2" stroke-width="2" d="M127.5 129c23.835 0 46.809 2.94 64.408 8.242 17.599 5.303 28.55 12.584 30.702 20.414 2.152 7.83-4.651 15.642-19.071 21.902-14.421 6.26-35.417 10.514-58.864 11.928-23.447 1.414-47.65-.115-67.852-4.287-20.203-4.172-34.945-10.685-41.331-18.259-6.387-7.575-3.954-15.663 6.818-22.677 10.773-7.013 29.107-12.444 51.4-15.225L127.5 160.5V129Z" mask="url(#b)"/>
  <path fill="#6B858D" d="M86 173.5s-6.913-1.233-11-3c-1.603-.693-4-2-4-2l4-8 5.5-9L86 148l3-8v-4l3.5-4 3-3.5 4-3.5h11l3.5 3.5h4.5l5.5 1.5 10-1.5 3 1.5h6l3 6h5.5v4l6.5 2h5l6 6h3.5v3.5l5 2 2.5 4.5 3.5 2.5-3.5 8-14 5-14.5 2.5h-52l-6.75-1.25L86 173.5Z"/>
  <path stroke="#486872" d="m183.5 160.5-3.5 8-14 5-14.5 2.5h-52l-6.75-1.25L86 173.5s-6.913-1.233-11-3c-1.603-.693-4-2-4-2m4 2c4.087 1.767 11 3 11 3l6.75 1.25L99.5 176h52l14.5-2.5 14-5 3.5-8-3.5-2.5-2.5-4.5-5-2V148H169l-6-6h-5l-6.5-2v-4H146l-3-6h-6l-3-1.5-10 1.5-5.5-1.5H114l-3.5-3.5h-11l-4 3.5-3 3.5-3.5 4v4l-3 8-5.5 3.5-5.5 9-4 8s2.397 1.307 4 2Z"/>
  <path fill="#fff" d="m100.798 134.589-3-3-1.5-3.5v-3l-2-3s-5.24-6.683-6.5-14.5c-1.26-7.816-1.214-12.196 1.5-20 4.377-7.301 7.623-10.309 15-13.5 11.348-.928 13.724 2.31 19.5 1.5s11.996-4.176 13.5-3.5c5.324.37 10 3.5 10 3.5s2 2.5 5 1.5l2.5-.5h2l2 .5 1.5 1.5c.5.5 1-.5 2-1.5s3 0 3 0l.5 1.5v2.5l2.5 2 1.5 2 2.5 2.5 1.5 2.5 3 3v1.5l-1 2.5-2 1-2 1-3.5-1-3-1c-2.097-.216-3.187-.207-5 0-2.227-.185-2.957.008-4 .5l-4 1.5h-2l-.5 1v2.5l-1.5 2.5-1 1.5-1 1.5-1 3-1.5 2.5-.5 1.5-1 2.5c-.743 1.809-.5 5.5-.5 5.5s.019 3.204.5 5l1 2 1 1.5v4l-1 2h-3l-2-1L138 136v-.613l-.202.202-.5 1-1.5 1h-2l-2-1-1-1-1-1-1.5-1.5-1-1.5v-5l.5-2v-4l-1-1-1-1.5v-1.5l-.5-1.5v-5l-.5-.5-1-1.5-1-.5-1.5-1-1 1-2.399-.544-2.046-.465c-3.104 1.684-5.88 2.305-11.055 2.287v.222l-.5 2v5l1.5 1.5v4l.5 2 2 2.5v3l-.5 2.5-1.5 2-2.5 1h-3Z"/>
  <path stroke="#D9D9D9" d="m158.798 77.09 1.5 1.5m-1.5-1.5-2-.5h-2l-2.5.5c-3 1-5-1.5-5-1.5s-4.676-3.131-10-3.5c-1.504-.677-7.724 2.69-13.5 3.5-5.776.808-8.152-2.43-19.5-1.5-7.377 3.19-10.623 6.198-15 13.5-2.714 7.803-2.76 12.183-1.5 19.999 1.26 7.817 6.5 14.5 6.5 14.5l2 3v3l1.5 3.5 3 3h3l2.5-1 1.5-2 .5-2.5v-3l-2-2.5-.5-2v-4l-1.5-1.5v-5l.5-2m54-32 1.5 1.5m0 0c.5.5 1-.5 2-1.5s3 0 3 0l.5 1.5v2.5l2.5 2 1.5 2 2.5 2.5 1.5 2.5 3 3v1.5l-1 2.5-2 1-2 1-3.5-1-3-1c-2.097-.216-3.187-.207-5 0-2.227-.185-2.957.008-4 .5l-4 1.5h-2m-6 0h6m-45.5 10v-.589m0 .589v-.222c5.175.018 7.951-.603 11.055-2.287m21.945 29.009-.5 1-1.5 1h-2l-2-1-1-1-1-1-1.5-1.5-1-1.5v-5l.5-2v-4l-1-1-1-1.5v-1.5l-.5-1.5v-5l-.5-.5-1-1.5-1-.5-1.5-1-1 1-2.399-.544-2.046-.465m21.945 29.009.202-.202m-.202.202.202-.202m5.298-30.298-1 1.5-1 1.5-1 3.5-1.5 3-1 2-.5 3c-.117 2.383.096 3.509.5 5.5.743 2.452.944 3.62 1 5.411.271 2.055.249 2.914 0 4.089l-.798.798m12.298-36.298-.5 1v2.5l-1.5 2.5-1 1.5-1 1.5-1 3-1.5 2.5-.5 1.5-1 2.5c-.743 1.809-.5 5.5-.5 5.5s.019 3.204.5 5l1 2 1 1.5v4l-1 2h-3l-2-1L138 136m0 0v-.613m0 .613v-.613M116 106.5l-.147.08m-.353-.08.353.08"/>
  <path fill="#425355" d="M53.565 60.088a60.874 60.874 0 0 0 1.948-.643 515.64 515.64 0 0 0 5.23-1.909c.178.351.396.667.654.949.256.278.559.564.908.858-.007.073-.054.146-.14.218a3.123 3.123 0 0 0-.718-.497 3.668 3.668 0 0 0-.908-.299 4.18 4.18 0 0 0-1.217-.046c-.463.04-.973.138-1.53.295l-1.524.542a129.63 129.63 0 0 0 1.178 3.542l1.574-.56c.106-.037.203-.08.29-.127.09-.053.167-.114.234-.183.065-.073.122-.139.172-.198a.908.908 0 0 0 .136-.247c.037-.105.069-.19.095-.258a2.1 2.1 0 0 0 .071-.305 11.777 11.777 0 0 0 .097-.656c.023-.158.04-.276.054-.355.13.003.217.026.26.069a5.119 5.119 0 0 0-.07 1.044c.012.37.056.665.135.886.186.522.575 1.033 1.166 1.531-.008.07-.06.144-.156.224a63.53 63.53 0 0 1-.283-.254 7.706 7.706 0 0 0-.545-.484 2.076 2.076 0 0 0-.562-.335.947.947 0 0 0-.303-.085 1.404 1.404 0 0 0-.317 0 1.296 1.296 0 0 0-.353.076l-1.573.56c.208.585.648 1.757 1.319 3.517l1.761-.626a8.37 8.37 0 0 0 1.373-.737c.388-.263.693-.53.915-.804a3.67 3.67 0 0 0 .516-.806c.118-.261.199-.541.243-.838.112.001.193.026.244.074-.005.044-.022.15-.05.317a11.846 11.846 0 0 0-.093.649 4.158 4.158 0 0 0-.026.344c-.003.084-.005.19-.005.32.004.126.013.25.026.37.016.114.037.23.063.35l-4.847 1.724c-.998.354-1.85.67-2.556.945a.387.387 0 0 1-.061-.102.993.993 0 0 1-.031-.157c.164-.075.295-.138.393-.19.1-.056.219-.13.357-.22a.93.93 0 0 0 .298-.28.358.358 0 0 0 .039-.293 96.526 96.526 0 0 0-1.172-3.508 78.63 78.63 0 0 0-1.153-3.066.34.34 0 0 0-.213-.198.882.882 0 0 0-.41-.035 4.157 4.157 0 0 0-.414.06c-.11.019-.252.05-.427.096a.807.807 0 0 1-.07-.13.646.646 0 0 1-.022-.13Zm14.759-4.992c.626-.139 1.41-.337 2.352-.595 3.578 2.608 5.497 3.995 5.756 4.158l.388.24.045-.012a90.949 90.949 0 0 0-.455-1.752 101.15 101.15 0 0 0-.897-3.053c-.1-.337-.576-.43-1.425-.279a1.31 1.31 0 0 1-.064-.146.383.383 0 0 1-.009-.12 44.21 44.21 0 0 0 1.62-.406c.301-.083.803-.233 1.505-.45a.386.386 0 0 1 .054.108c.016.06.023.113.019.158-.804.302-1.164.623-1.079.964.278 1.192.574 2.36.888 3.506.48 1.752.86 3.065 1.14 3.94l-.1.04-7.51-5.374-.056.016c.245.982.503 1.97.776 2.965.239.874.537 1.89.895 3.047.102.34.575.436 1.42.285a.6.6 0 0 1 .07.145.26.26 0 0 1 .004.12 44.64 44.64 0 0 0-1.615.407c-.301.082-.803.232-1.505.448a.26.26 0 0 1-.06-.105.357.357 0 0 1-.013-.16c.811-.308 1.17-.63 1.077-.97a103.68 103.68 0 0 0-1.818-6.725c-.391-.189-.835-.233-1.33-.134a.33.33 0 0 1-.07-.12.251.251 0 0 1-.003-.146Zm15.106-3.897a61.693 61.693 0 0 0 2.068-.352 83.972 83.972 0 0 1 1.758-.387 10.59 10.59 0 0 1 1.015-.148c.32-.03.656-.035 1.006-.015.353.016.679.064.977.146.297.078.592.202.883.373.292.17.55.383.774.638.224.255.425.576.604.964.177.383.313.82.408 1.311.06.478.061.927.003 1.348a3.82 3.82 0 0 1-.885 2.033c-.236.28-.494.52-.773.722-.276.2-.583.38-.922.542a7.57 7.57 0 0 1-.998.395 9.238 9.238 0 0 1-1.024.258c-1.439.277-2.528.5-3.267.666a.385.385 0 0 1-.046-.111.993.993 0 0 1-.007-.16 6.305 6.305 0 0 0 .545-.177c.12-.042.213-.082.281-.12.072-.041.144-.089.217-.143a.459.459 0 0 0 .152-.172.295.295 0 0 0 .028-.197 96.354 96.354 0 0 0-1.31-6.848.34.34 0 0 0-.18-.228.882.882 0 0 0-.401-.096 4.208 4.208 0 0 0-.418-.002 5.099 5.099 0 0 0-.436.03.806.806 0 0 1-.05-.14.642.642 0 0 1-.002-.13Zm2.834.306a97.47 97.47 0 0 0 .628 3.656c.12.622.37 1.807.751 3.555.166-.024.403-.066.71-.125.621-.12 1.156-.32 1.603-.601a3.21 3.21 0 0 0 1.036-1.03c.245-.401.401-.849.469-1.343.07-.5.052-1.03-.057-1.595a5.378 5.378 0 0 0-.234-.844 5.417 5.417 0 0 0-.384-.815 3.136 3.136 0 0 0-.57-.725 3.256 3.256 0 0 0-.76-.534 2.649 2.649 0 0 0-.985-.281 3.967 3.967 0 0 0-1.206.06 7.32 7.32 0 0 0-1.067.283l.066.34Zm17.654-3.748a.44.44 0 0 1 .177-.103l4.094 7.588a.6.6 0 0 0 .22.228c.097.056.214.096.35.12.14.019.26.033.359.041.103.004.227.005.372.005.023.06.036.111.041.154a.352.352 0 0 1-.008.13 56.18 56.18 0 0 0-1.886.17c-.45.05-1.101.14-1.951.27a.433.433 0 0 1-.032-.285c.774-.176 1.149-.368 1.125-.578a.944.944 0 0 0-.047-.2l-1.091-2.07c-.257.022-.603.057-1.038.107-.206.024-.738.092-1.598.206l-.632 2.367.008.07a.386.386 0 0 0 .03.108c.02.033.047.062.081.085a.677.677 0 0 0 .241.102c.06.01.11.017.151.025a12.274 12.274 0 0 0 .344.02 25.084 25.084 0 0 1 .336-.004.71.71 0 0 1 .041.155.59.59 0 0 1-.009.13c-.873.069-1.363.11-1.472.122-.21.024-.747.1-1.613.231a.46.46 0 0 1-.033-.285c.797-.185 1.234-.436 1.312-.751l1.782-6.597-.168-.329c.205-.173.34-.35.406-.53.069-.18.105-.415.108-.702Zm.633 5.123c.357-.04.638-.077.843-.108l-1.434-2.738-.023.003-.786 2.98c.367-.027.833-.072 1.4-.137Zm10.731-6.092c.642.006 1.45-.01 2.426-.049 2.896 3.349 4.453 5.133 4.669 5.35l.323.322.047-.002c-.014-.75-.03-1.353-.048-1.81a102.91 102.91 0 0 0-.185-3.177c-.022-.35-.463-.548-1.325-.592a1.431 1.431 0 0 1-.03-.157.387.387 0 0 1 .019-.118 45.424 45.424 0 0 0 1.67-.031 56.18 56.18 0 0 0 1.568-.098.427.427 0 0 1 .028.117.504.504 0 0 1-.017.159c-.852.111-1.275.343-1.269.695.002 1.223.026 2.428.073 3.615.072 1.815.146 3.18.221 4.096l-.105.016-6.103-6.93-.059.002c.017 1.012.045 2.034.086 3.064.036.906.098 1.962.185 3.17.021.356.461.555 1.319.6a.627.627 0 0 1 .036.157.267.267 0 0 1-.025.118c-.621 0-1.176.011-1.664.03a56.18 56.18 0 0 0-1.568.098.267.267 0 0 1-.034-.116.366.366 0 0 1 .023-.16c.86-.116 1.283-.35 1.269-.7a103.101 103.101 0 0 0-.253-6.962c-.339-.273-.761-.416-1.266-.432a.325.325 0 0 1-.04-.133.245.245 0 0 1 .029-.142Zm23.689 2.576a7.963 7.963 0 0 0-.342-.74 4.255 4.255 0 0 0-.45-.673 2.969 2.969 0 0 0-.606-.58 3.065 3.065 0 0 0-.807-.387 3.849 3.849 0 0 0-1.066-.18 2.532 2.532 0 0 0-2.031.856 4.07 4.07 0 0 0-.592.946c-.162.357-.281.72-.357 1.089a6.487 6.487 0 0 0-.078 2.237c.053.369.149.738.288 1.107.142.369.322.694.538.975.216.282.493.515.83.7.341.18.723.279 1.144.294.859.032 1.463-.137 1.813-.507l.089-2.377a.29.29 0 0 0-.092-.22.687.687 0 0 0-.223-.161 1.816 1.816 0 0 0-.342-.107 4.023 4.023 0 0 0-.681-.125.668.668 0 0 1-.018-.141.624.624 0 0 1 .028-.134c.881.064 1.56.105 2.036.123.484.018 1.164.027 2.04.028.016.08.024.124.024.136a.966.966 0 0 1-.035.14 4.453 4.453 0 0 0-.694.074 1.84 1.84 0 0 0-.343.08.69.69 0 0 0-.228.145.289.289 0 0 0-.108.212l-.032.867c-.028.742.037 1.352.196 1.83-.653.215-1.232.367-1.735.458a8.019 8.019 0 0 1-1.71.1 5.7 5.7 0 0 1-1.138-.159 4.808 4.808 0 0 1-1.19-.484 4.33 4.33 0 0 1-1.076-.849c-.305-.335-.552-.779-.743-1.329-.186-.55-.267-1.169-.241-1.856.018-.496.088-.952.209-1.37a4.21 4.21 0 0 1 .474-1.079 3.852 3.852 0 0 1 1.469-1.358c.275-.143.563-.257.863-.344a5.134 5.134 0 0 1 1.662-.213c.437.016.851.059 1.244.128.396.065.79.145 1.181.237.392.09.702.151.931.187-.065.174-.103.42-.115.74-.02.532.057 1.052.229 1.563-.026.07-.098.11-.215.121Zm8.482-2.078c.866.13 1.543.224 2.032.28 3.333.361 5.178.557 5.536.586.006.394.063.774.171 1.14.108.362.254.752.438 1.17-.039.063-.113.107-.222.134a3.086 3.086 0 0 0-.426-.762 3.652 3.652 0 0 0-.684-.668c-.278-.217-.636-.409-1.073-.577a8.366 8.366 0 0 0-1.504-.408l-1.607-.183a132.497 132.497 0 0 0-.499 3.7l1.659.189c.112.013.218.017.317.013.103-.008.2-.029.29-.062.091-.036.171-.07.242-.102a.917.917 0 0 0 .23-.162l.199-.19a2.2 2.2 0 0 0 .199-.242 10.709 10.709 0 0 0 .375-.547c.09-.131.158-.23.205-.295.115.06.183.119.204.176-.196.269-.37.572-.523.908-.152.336-.242.62-.269.854-.063.55.062 1.18.374 1.889-.038.058-.118.102-.239.131l-.143-.352a6.594 6.594 0 0 0-.276-.675 2.142 2.142 0 0 0-.356-.547.944.944 0 0 0-.236-.21 1.38 1.38 0 0 0-.285-.139 1.29 1.29 0 0 0-.35-.087l-1.659-.19c-.07.617-.191 1.864-.362 3.739l1.857.212a8.362 8.362 0 0 0 1.557-.057 4.186 4.186 0 0 0 1.175-.32c.324-.148.596-.313.818-.496.221-.184.417-.399.587-.647.1.05.162.11.186.175-.024.036-.085.124-.183.262a11.443 11.443 0 0 0-.369.542c-.077.12-.135.22-.175.298-.04.074-.089.169-.145.284-.053.116-.099.23-.14.344a5.19 5.19 0 0 0-.098.343l-5.111-.585a89.789 89.789 0 0 0-2.711-.275c-.01-.048-.013-.088-.01-.119.003-.027.017-.078.041-.154.181.005.326.006.436.002.115-.006.254-.02.418-.04a.932.932 0 0 0 .391-.12.356.356 0 0 0 .164-.247 95.194 95.194 0 0 0 .804-6.926.337.337 0 0 0-.105-.272.879.879 0 0 0-.353-.211 4.207 4.207 0 0 0-.398-.128 5.11 5.11 0 0 0-.425-.102.785.785 0 0 1-.007-.148.73.73 0 0 1 .038-.126Zm15.451 2.01c.823.188 1.487.33 1.994.427.192.037.502.088.931.154.429.065.758.12.989.164.851.162 1.48.505 1.886 1.027.409.523.548 1.129.418 1.815a2.472 2.472 0 0 1-.772 1.392c-.409.372-.913.598-1.513.679.169.509.423 1.098.761 1.767.323.662.649 1.195.978 1.6.332.405.721.672 1.165.8a.405.405 0 0 1-.051.27c-.228-.055-.472-.11-.732-.163-.261-.053-.552-.11-.874-.172-.319-.06-.564-.11-.736-.146-.804-1.398-1.407-2.737-1.812-4.02a4.226 4.226 0 0 1-.941-.316 85.564 85.564 0 0 0-.487 2.902c-.015.1.012.195.083.284a.925.925 0 0 0 .332.23c.154.07.283.124.386.163.109.037.25.08.423.129.001.08-.001.133-.006.16a.394.394 0 0 1-.045.11 57.852 57.852 0 0 0-4.006-.762.421.421 0 0 1 .051-.27l.282.023c.07.005.167.01.29.013.126.005.228.002.305-.007.082-.012.167-.03.255-.053a.46.46 0 0 0 .205-.104.296.296 0 0 0 .098-.172 95.29 95.29 0 0 0 .76-3.62c.237-1.243.422-2.319.555-3.228a.334.334 0 0 0-.084-.278.874.874 0 0 0-.336-.237 4.208 4.208 0 0 0-.388-.158 5.044 5.044 0 0 0-.416-.133.848.848 0 0 1 .004-.148.643.643 0 0 1 .048-.122Zm2.6.907-.011-.003c-.312 1.408-.584 2.72-.815 3.937.252.14.516.235.792.288.253.048.488.05.703.003a1.48 1.48 0 0 0 .567-.25c.157-.117.297-.264.418-.44.124-.175.223-.357.294-.546a3.13 3.13 0 0 0 .173-.593c.109-.572.04-1.068-.206-1.49-.241-.423-.65-.69-1.225-.799a8.195 8.195 0 0 0-.69-.107Zm12.658 2.243c.837.257 1.493.45 1.968.577 3.242.85 5.038 1.317 5.388 1.399a4.28 4.28 0 0 0 0 1.153c.053.374.14.781.26 1.222-.047.056-.127.09-.239.1a3.116 3.116 0 0 0-.308-.817 3.669 3.669 0 0 0-.578-.762 4.19 4.19 0 0 0-.975-.73 8.374 8.374 0 0 0-1.428-.625l-1.562-.42a134.985 134.985 0 0 0-1.041 3.585l1.613.433c.109.03.213.05.311.06.103.007.202.002.296-.018.095-.023.18-.044.254-.065a.926.926 0 0 0 .253-.126c.09-.065.165-.118.224-.158a2.09 2.09 0 0 0 .233-.211 12.662 12.662 0 0 0 .452-.485c.108-.117.19-.204.246-.262.104.077.163.145.175.205-.233.237-.45.51-.651.82-.2.31-.331.579-.392.805-.144.536-.114 1.177.09 1.923-.046.052-.131.084-.256.095l-.089-.37a10.86 10.86 0 0 0-.081-.373 7.67 7.67 0 0 0-.092-.335 2.184 2.184 0 0 0-.272-.594.948.948 0 0 0-.201-.242 1.395 1.395 0 0 0-.262-.18 1.282 1.282 0 0 0-.333-.138l-1.612-.433c-.162.6-.466 1.815-.912 3.644l1.805.485a8.37 8.37 0 0 0 1.549.173 4.18 4.18 0 0 0 1.209-.142c.342-.098.636-.222.882-.37a3.11 3.11 0 0 0 .676-.552c.092.065.145.131.159.2l-.22.232a10.932 10.932 0 0 0-.445.481 4.276 4.276 0 0 0-.218.27c-.05.067-.112.153-.185.259a4.606 4.606 0 0 0-.189.32 4.964 4.964 0 0 0-.148.324l-4.968-1.335a89.79 89.79 0 0 0-2.641-.672.42.42 0 0 1 .008-.12c.007-.026.029-.075.064-.146.177.031.321.053.431.067.114.01.254.017.419.021a.927.927 0 0 0 .404-.06.356.356 0 0 0 .199-.22 96.977 96.977 0 0 0 1.027-3.553c.328-1.222.592-2.282.793-3.178a.344.344 0 0 0-.063-.285.883.883 0 0 0-.319-.26 5.229 5.229 0 0 0-.779-.349.812.812 0 0 1 .015-.148.661.661 0 0 1 .056-.119Zm15.005 4.269c.815.32 1.469.568 1.962.742.932.295 1.502.48 1.712.554.343.121.66.25.952.385.292.136.583.301.875.496.297.191.554.398.77.619.217.217.408.473.574.768.165.294.28.608.345.942.064.333.076.712.034 1.136-.041.42-.144.867-.311 1.338a5.12 5.12 0 0 1-.678 1.165 3.828 3.828 0 0 1-1.79 1.307c-.346.123-.69.2-1.033.233a5.775 5.775 0 0 1-1.069.001 7.543 7.543 0 0 1-1.061-.163 9.169 9.169 0 0 1-1.014-.295 118.147 118.147 0 0 0-3.156-1.076.371.371 0 0 1 .017-.118.972.972 0 0 1 .075-.142l.275.066c.068.016.163.035.284.057a2.2 2.2 0 0 0 .303.039c.083 0 .169-.005.26-.014a.46.46 0 0 0 .218-.073.291.291 0 0 0 .123-.155 95.96 95.96 0 0 0 2.331-6.572.34.34 0 0 0-.042-.288.875.875 0 0 0-.297-.285 5.22 5.22 0 0 0-.751-.408.84.84 0 0 1 .027-.145.628.628 0 0 1 .065-.114Zm2.291 1.696a97.412 97.412 0 0 0-1.306 3.473c-.211.597-.593 1.746-1.148 3.447.156.063.381.147.676.251.597.21 1.159.307 1.687.29a3.21 3.21 0 0 0 1.415-.364c.414-.223.775-.53 1.083-.923.313-.394.566-.863.757-1.404.098-.28.173-.562.224-.847a5.48 5.48 0 0 0 .08-.897 3.146 3.146 0 0 0-.511-1.758 2.626 2.626 0 0 0-.708-.741 3.965 3.965 0 0 0-1.07-.558 7.331 7.331 0 0 0-1.064-.294l-.115.325Z"/>
</svg>
